<?xml version="1.0" encoding="iso-8859-1"?>
<!-- Generator: Adobe Illustrator 19.0.0, SVG Export Plug-In . SVG Version: 6.00 Build 0)  -->
<svg version="1.1" id="Capa_1" xmlns="http://www.w3.org/2000/svg" xmlns:xlink="http://www.w3.org/1999/xlink" x="0px" y="0px"
	 viewBox="0 0 512 512" style="enable-background:new 0 0 512 512;" xml:space="preserve">
<rect x="31.999" y="191.668" style="fill:#FFFFFF;" width="447.996" height="310.328"/>
<path style="fill:#BBECFF;" d="M455.996,10H55.999c-13.255,0-24,10.745-24,24v48h447.996V34C479.996,20.745,469.251,10,455.996,10z"
	/>
<polygon style="fill:#98E3FF;" points="501.999,137.999 10.002,137.999 31.999,81.999 479.996,81.999 "/>
<path style="fill:#FF8E8E;" d="M256.001,137.999v24.958c0,22.644-18.356,38-41,38l0,0c-22.644,0-41-15.356-41-38v-24.958H256.001z"
	/>
<path style="fill:#E7F8FF;" d="M338,137.999v24.958c0,22.644-18.356,38-41,38l0,0c-22.644,0-41-15.356-41-38v-24.958H338z"/>
<path style="fill:#FF8E8E;" d="M419.999,137.999v24.958c0,22.644-18.356,38-41,38l0,0c-22.644,0-41-15.356-41-38v-24.958H419.999z"
	/>
<path style="fill:#E7F8FF;" d="M501.999,137.999v24.958c0,22.644-18.356,38-41,38l0,0c-22.644,0-41-15.356-41-38v-24.958H501.999z"
	/>
<path style="fill:#FF8E8E;" d="M92.002,137.999v24.958c0,22.644-18.356,38-41,38l0,0c-22.644,0-41-15.356-41-38v-24.958H92.002z"/>
<path style="fill:#E7F8FF;" d="M174.001,137.999v24.958c0,22.644-18.356,38-41,38l0,0c-22.644,0-41-15.356-41-38v-24.958H174.001z"
	/>
<path style="fill:#FDCF84;" d="M475.686,381.725l-24.354,24.354l50.667,50.667L456.744,502l-50.667-50.667l-18.164,18.164
	l-32.128-119.9L475.686,381.725z"/>
<polygon style="fill:#FF5D5D;" points="125.02,350.535 227.192,350.535 241.357,280.955 107.796,280.955 "/>
<path d="M384.569,491.996H41.999V210.26c2.91,0.449,5.913,0.696,9.003,0.696c17.181,0,31.861-7.208,41-18.75
	c9.139,11.542,23.819,18.75,41,18.75s31.861-7.208,41-18.75c9.139,11.542,23.819,18.75,41,18.75s31.861-7.208,41-18.75
	c9.139,11.542,23.819,18.75,41,18.75s31.861-7.208,41-18.75c9.139,11.542,23.819,18.75,41,18.75c17.181,0,31.861-7.208,41-18.75
	c9.139,11.542,23.819,18.75,41,18.75c3.088,0,6.088-0.246,8.997-0.695v79.861c0,5.522,4.478,10,10,10c5.522,0,10-4.478,10-10
	v-87.193c13.473-8.458,22.003-22.906,22.003-39.973v-24.958c-0.002,0-0.003,0-0.005,0c0-1.235-0.223-2.476-0.688-3.658
	l-21.311-54.238V34c0-18.748-15.252-34-34-34H55.998c-18.748,0-34,15.252-34,34v46.106L0.695,134.343
	c-0.464,1.182-0.688,2.422-0.688,3.657c-0.002,0-0.003,0-0.005,0v24.958c0,17.064,8.528,31.51,21.997,39.969v299.07
	c0,5.522,4.478,10,10,10h352.57c5.522,0,10-4.478,10-10C394.568,496.474,390.092,491.996,384.569,491.996z M133.001,190.956
	c-17.963,0-31-11.775-31-28v-14.958h62v14.958C164.001,179.182,150.964,190.956,133.001,190.956z M38.814,91.999H473.18l14.146,36
	H24.674L38.814,91.999z M215.001,190.956c-17.963,0-31-11.775-31-28v-14.958h62v14.958
	C246.001,179.182,232.964,190.956,215.001,190.956z M297,190.956c-17.963,0-31-11.775-31-28v-14.958h62v14.958
	C328,179.182,314.963,190.956,297,190.956z M379,190.956c-17.963,0-31-11.775-31-28v-14.958h62v14.958
	C409.999,179.182,396.962,190.956,379,190.956z M491.999,162.957c0,16.225-13.037,28-31,28c-17.963,0-31-11.775-31-28v-14.958h62
	V162.957z M41.999,34c0-7.72,6.28-14,14-14h399.997c7.72,0,14,6.28,14,14v38H41.999C41.999,71.999,41.999,34,41.999,34z
	 M20.002,147.999h62v14.958c0,16.225-13.037,28-31,28s-31-11.775-31-28C20.002,162.957,20.002,147.999,20.002,147.999z"/>
<path d="M509.069,449.674l-43.596-43.596l17.283-17.283c2.526-2.526,3.513-6.209,2.588-9.659c-0.925-3.451-3.62-6.146-7.071-7.071
	l-119.899-32.127c-3.453-0.927-7.133,0.063-9.659,2.588c-2.526,2.526-3.513,6.209-2.588,9.659l32.127,119.899
	c0.925,3.451,3.62,6.146,7.071,7.071c3.452,0.926,7.133-0.063,9.659-2.588l11.093-11.093l43.596,43.596
	c1.953,1.952,4.512,2.929,7.071,2.929s5.118-0.977,7.071-2.929l45.255-45.255C512.974,459.911,512.974,453.579,509.069,449.674z
	 M393.09,450.179l-23.161-86.438l86.438,23.161l-12.107,12.106l-45.255,45.255L393.09,450.179z M456.744,487.857l-36.524-36.524
	l31.112-31.112l36.524,36.524L456.744,487.857z"/>
<path d="M339.882,330.006c3.905-3.905,3.905-10.237,0-14.143l-32.813-32.813c-3.906-3.904-10.236-3.904-14.143,0
	c-3.905,3.905-3.905,10.237,0,14.143l32.813,32.813c1.953,1.952,4.512,2.929,7.071,2.929
	C335.369,332.935,337.929,331.958,339.882,330.006z"/>
<path d="M353.993,285.67v21.684c0,5.522,4.478,10,10,10c5.522,0,10-4.478,10-10V285.67c0-5.522-4.478-10-10-10
	C358.471,275.67,353.993,280.147,353.993,285.67z"/>
<path d="M317.222,344.082h-21.684c-5.522,0-10,4.478-10,10c0,5.522,4.478,10,10,10h21.684c5.522,0,10-4.478,10-10
	C327.222,348.56,322.744,344.082,317.222,344.082z"/>
<path d="M123.298,386.41c1.107,4.457,5.11,7.587,9.704,7.587h98.59c5.522,0,10-4.478,10-10s-4.478-10-10-10h-90.772l-3.347-13.462
	h89.719c4.754,0,8.851-3.347,9.799-8.005l14.165-69.58c0.599-2.941-0.155-5.997-2.055-8.321c-1.899-2.325-4.742-3.674-7.744-3.674
	H115.201l-4.319-17.371c-1.107-4.457-5.11-7.587-9.704-7.587H75.999c-5.522,0-10,4.478-10,10c0,5.522,4.478,10,10,10h17.36
	L123.298,386.41z M229.116,290.955l-10.093,49.581h-86.523l-12.327-49.581H229.116z"/>
<path d="M133.931,399.007c-1.86,1.86-2.93,4.44-2.93,7.07c0,2.63,1.069,5.21,2.93,7.069c1.86,1.86,4.44,2.931,7.07,2.931
	c2.63,0,5.21-1.07,7.069-2.931c1.86-1.859,2.931-4.439,2.931-7.069c0-2.63-1.07-5.21-2.931-7.07c-1.859-1.86-4.439-2.93-7.069-2.93
	C138.371,396.077,135.791,397.146,133.931,399.007z"/>
<path d="M207.931,399.007c-1.86,1.86-2.93,4.44-2.93,7.07c0,2.63,1.069,5.21,2.93,7.069c1.86,1.86,4.44,2.931,7.07,2.931
	c2.63,0,5.21-1.07,7.069-2.931c1.86-1.859,2.931-4.439,2.931-7.069c0-2.63-1.07-5.21-2.931-7.07c-1.859-1.86-4.439-2.93-7.069-2.93
	C212.371,396.077,209.791,397.146,207.931,399.007z"/>
<path d="M116.002,457.996h125.355c5.522,0,10-4.478,10-10c0-5.522-4.478-10-10-10H116.002c-5.522,0-10,4.478-10,10
	C106.002,453.518,110.479,457.996,116.002,457.996z"/>
<path d="M68.101,440.927c-1.859,1.86-2.93,4.44-2.93,7.07c0,2.63,1.07,5.21,2.93,7.069c1.86,1.86,4.44,2.931,7.07,2.931
	s5.21-1.07,7.07-2.931c1.859-1.859,2.93-4.439,2.93-7.069c0-2.63-1.07-5.21-2.93-7.07c-1.86-1.86-4.44-2.93-7.07-2.93
	C72.532,437.997,69.962,439.066,68.101,440.927z"/>
<g>
</g>
<g>
</g>
<g>
</g>
<g>
</g>
<g>
</g>
<g>
</g>
<g>
</g>
<g>
</g>
<g>
</g>
<g>
</g>
<g>
</g>
<g>
</g>
<g>
</g>
<g>
</g>
<g>
</g>
</svg>
