<svg height="512" viewBox="0 0 512 512" width="512" xmlns="http://www.w3.org/2000/svg"><g><g fill="#57a4ff"><path d="m476 40h-440a19.994 19.994 0 0 0 -20 20v28h480v-28a19.994 19.994 0 0 0 -20-20z"/><path d="m339.65 312.88 18.17-20.76-33.94-33.94-20.76 18.17a95.406 95.406 0 0 0 -21.29-8.83l-1.83-27.52h-48l-1.83 27.52a95.406 95.406 0 0 0 -21.29 8.83l-20.76-18.17-33.94 33.94 18.17 20.76a95.406 95.406 0 0 0 -8.83 21.29l-27.52 1.83v48l27.52 1.83a95.406 95.406 0 0 0 8.83 21.29l-18.17 20.76 33.94 33.94 20.76-18.17a95.406 95.406 0 0 0 21.29 8.83l1.83 27.52h48l1.83-27.52a95.406 95.406 0 0 0 21.29-8.83l20.76 18.17 33.94-33.94-18.17-20.76a95.406 95.406 0 0 0 8.83-21.29l27.52-1.83v-48l-27.52-1.83a95.406 95.406 0 0 0 -8.83-21.29zm-83.65-16.88a64 64 0 1 1 -64 64 64 64 0 0 1 64-64z"/><circle cx="256" cy="360" r="16"/><path d="m40 168h128v64h-128z"/><path d="m336 120h128v64h-128z"/></g><g fill="#004fac"><path d="m476 32h-440a28.031 28.031 0 0 0 -28 28v360a28.031 28.031 0 0 0 28 28h126.98l19.48 19.48a7.985 7.985 0 0 0 10.92.36l16.63-14.54a105.464 105.464 0 0 0 12.54 5.2l1.47 22.03a8 8 0 0 0 7.98 7.47h48a8 8 0 0 0 7.98-7.47l1.47-22.03a105.464 105.464 0 0 0 12.54-5.2l16.63 14.54a7.985 7.985 0 0 0 10.92-.36l19.48-19.48h126.98a28.031 28.031 0 0 0 28-28v-360a28.031 28.031 0 0 0 -28-28zm-128.05 345.85a8.013 8.013 0 0 0 -7.18 5.84 87.833 87.833 0 0 1 -8.08 19.5 8.008 8.008 0 0 0 .94 9.2l13.24 15.13-6.77 6.77-.11.11-16.47 16.47-15.14-13.24a8 8 0 0 0 -9.2-.94 87.561 87.561 0 0 1 -19.49 8.08 8.013 8.013 0 0 0 -5.84 7.18l-1.33 20.05h-33.04l-1.33-20.05a8.013 8.013 0 0 0 -5.84-7.18 87.561 87.561 0 0 1 -19.49-8.08 8 8 0 0 0 -9.2.94l-15.14 13.24-16.47-16.47-.11-.11-6.77-6.77 13.24-15.13a8.008 8.008 0 0 0 .94-9.2 87.833 87.833 0 0 1 -8.08-19.5 8.013 8.013 0 0 0 -7.18-5.84l-20.05-1.33v-33.04l20.05-1.33a8.013 8.013 0 0 0 7.18-5.84 87.561 87.561 0 0 1 8.08-19.49 8.022 8.022 0 0 0 -.94-9.21l-13.24-15.13 23.35-23.35 15.14 13.24a8 8 0 0 0 9.2.94 87.561 87.561 0 0 1 19.49-8.08 8.013 8.013 0 0 0 5.84-7.18l1.33-20.05h33.04l1.33 20.05a8.013 8.013 0 0 0 5.84 7.18 87.561 87.561 0 0 1 19.49 8.08 8 8 0 0 0 9.2-.94l15.14-13.24 23.35 23.35-13.24 15.13a8.022 8.022 0 0 0 -.94 9.21 87.561 87.561 0 0 1 8.08 19.49 8.013 8.013 0 0 0 7.18 5.84l20.05 1.33v33.04zm140.05 42.15a12.01 12.01 0 0 1 -12 12h-111.33a7.984 7.984 0 0 0 -.83-9.39l-14.54-16.62a105.464 105.464 0 0 0 5.2-12.54l22.03-1.47a8 8 0 0 0 7.47-7.98v-48a8 8 0 0 0 -7.47-7.98l-22.03-1.47a106.16 106.16 0 0 0 -5.2-12.54l14.54-16.62a8 8 0 0 0 -.36-10.93l-33.94-33.94a7.985 7.985 0 0 0 -10.92-.36l-16.63 14.54a105.464 105.464 0 0 0 -12.54-5.2l-1.47-22.03a8 8 0 0 0 -7.98-7.47h-48a8 8 0 0 0 -7.98 7.47l-1.47 22.03a105.464 105.464 0 0 0 -12.54 5.2l-16.63-14.54a7.985 7.985 0 0 0 -10.92.36l-33.94 33.94a8 8 0 0 0 -.36 10.93l14.54 16.62a106.16 106.16 0 0 0 -5.2 12.54l-22.03 1.47a8 8 0 0 0 -7.47 7.98v48a8 8 0 0 0 7.47 7.98l22.03 1.47a105.464 105.464 0 0 0 5.2 12.54l-14.54 16.62a7.984 7.984 0 0 0 -.83 9.39h-111.33a12.01 12.01 0 0 1 -12-12v-324h464zm0-340h-464v-20a12.01 12.01 0 0 1 12-12h440a12.01 12.01 0 0 1 12 12z"/><path d="m40 72h8a8 8 0 0 0 0-16h-8a8 8 0 0 0 0 16z"/><path d="m72 72h8a8 8 0 0 0 0-16h-8a8 8 0 0 0 0 16z"/><path d="m104 72h8a8 8 0 0 0 0-16h-8a8 8 0 0 0 0 16z"/><path d="m256 288a72 72 0 1 0 72 72 72.081 72.081 0 0 0 -72-72zm0 128a56 56 0 1 1 56-56 56.063 56.063 0 0 1 -56 56z"/><path d="m256 336a24 24 0 1 0 24 24 24.027 24.027 0 0 0 -24-24zm0 32a8 8 0 1 1 8-8 8.009 8.009 0 0 1 -8 8z"/><path d="m168 160h-128a8 8 0 0 0 -8 8v64a8 8 0 0 0 8 8h128a8 8 0 0 0 8-8v-64a8 8 0 0 0 -8-8zm-8 64h-112v-48h112z"/><path d="m464 112h-128a8 8 0 0 0 -8 8v64a8 8 0 0 0 8 8h128a8 8 0 0 0 8-8v-64a8 8 0 0 0 -8-8zm-8 64h-112v-48h112z"/><path d="m168 112h-128a8 8 0 0 0 0 16h128a8 8 0 0 0 0-16z"/><path d="m40 152h64a8 8 0 0 0 0-16h-64a8 8 0 0 0 0 16z"/><path d="m136 152a8 8 0 0 0 0-16h-8a8 8 0 0 0 0 16z"/><path d="m464 200h-128a8 8 0 0 0 0 16h128a8 8 0 0 0 0-16z"/><path d="m400 224h-64a8 8 0 0 0 0 16h64a8 8 0 0 0 0-16z"/><path d="m432 224h-8a8 8 0 0 0 0 16h8a8 8 0 0 0 0-16z"/></g></g></svg>